<svg xmlns="http://www.w3.org/2000/svg" width="122.115" height="122.115" viewBox="32.119 26.246 122.115 122.115" enable-background="new 32.119 26.246 122.115 122.115"><g><path fill="#fff" d="M107.512 60.375h-15.854l-.013 25.84h-12.804c-4.283 0-7.89 1.561-10.429 4.512-2.235 2.599-3.465 6.082-3.465 9.812 0 7.119 4.773 14.323 13.895 14.323h15.854l.013-25.84h12.804c4.283 0 7.89-1.562 10.429-4.513 2.235-2.598 3.466-6.083 3.466-9.811-.001-7.118-4.775-14.323-13.896-14.323zm-15.866 51.437h-12.805c-7.494 0-10.906-5.86-10.906-11.307 0-5.443 3.413-11.304 10.906-11.304h12.804l.001 22.611zm15.866-25.78h-12.804v-22.608h12.804c7.494 0 10.906 5.859 10.906 11.305 0 5.444-3.412 11.303-10.906 11.303zM93.177 26.246c-33.667 0-61.058 27.39-61.058 61.057 0 33.668 27.39 61.059 61.058 61.059s61.057-27.391 61.057-61.059c0-33.667-27.39-61.057-61.057-61.057zm0 117.975c-31.385 0-56.918-25.533-56.918-56.918 0-31.384 25.533-56.917 56.918-56.917 31.384 0 56.917 25.533 56.917 56.917 0 31.385-25.533 56.918-56.917 56.918z"/></g></svg>