<?xml version="1.0" encoding="utf-8"?>
<!-- Generator: Adobe Illustrator 16.0.3, SVG Export Plug-In . SVG Version: 6.00 Build 0)  -->
<!DOCTYPE svg PUBLIC "-//W3C//DTD SVG 1.1//EN" "http://www.w3.org/Graphics/SVG/1.1/DTD/svg11.dtd">
<svg version="1.1" id="Layer_1" xmlns="http://www.w3.org/2000/svg" xmlns:xlink="http://www.w3.org/1999/xlink" x="0px" y="0px"
	 width="500px" height="500px" viewBox="0 0 500 500" enable-background="new 0 0 500 500" xml:space="preserve">
<g>
	<path fill="#222222" d="M250.214,134.366L28.452,250.818l221.124,116.047L472.532,249.79L250.214,134.366z M67.803,250.811
		l96.611-50.73c-8.459,14.517-13.314,31.378-13.273,49.355c0.047,19.8,6.019,38.219,16.202,53.617L67.803,250.811z M249.212,328.802
		c-43.887,0.103-79.677-35.52-79.778-79.408c-0.1-43.892,35.518-79.68,79.408-79.783c43.89-0.102,79.68,35.525,79.783,79.411
		C328.728,292.91,293.101,328.7,249.212,328.802z M332.082,197.476l100.931,52.406l-102.835,54.003
		c10.603-15.688,16.783-34.589,16.736-54.905C346.871,230.078,341.431,212.435,332.082,197.476z"/>
	<path fill="#222222" d="M248.91,198.466c-25.716,0.056-46.967,19.339-50.187,44.184l-21.45,4.058l21.049,3.983
		c0.072,2.402,0.305,4.764,0.699,7.072l-19.933,9.356l21.962-1.429c0.505,1.469,1.077,2.904,1.707,4.305l-17.338,14.212l21.382-6.91
		c0.81,1.214,1.672,2.386,2.583,3.524l-13.355,18.334l19.137-12.198c1.129,1.018,2.3,1.979,3.516,2.89l-7.979,21.095l15.073-16.656
		c1.677,0.869,3.408,1.646,5.187,2.326l-1.846,21.873l9.656-19.581c3.263,0.671,6.638,1.028,10.092,1.036l3.946,20.868l4.061-21.465
		c24.315-3.791,42.956-24.903,42.898-50.258C299.704,221.106,276.89,198.397,248.91,198.466z M247.631,254.1
		c-10.8,0.026-19.578-8.711-19.602-19.512c-0.025-10.803,8.709-19.577,19.513-19.604c10.8-0.024,19.577,8.71,19.602,19.512
		C267.169,245.3,258.434,254.074,247.631,254.1z M275.026,264.818c-4.884,0.013-8.856-3.938-8.867-8.826
		c-0.013-4.884,3.939-8.854,8.826-8.863c4.886-0.01,8.854,3.939,8.867,8.826C283.861,260.839,279.91,264.806,275.026,264.818z"/>
</g>
</svg>
