<?xml version="1.0" encoding="utf-8"?>
<!-- Generator: Adobe Illustrator 16.0.3, SVG Export Plug-In . SVG Version: 6.00 Build 0)  -->
<!DOCTYPE svg PUBLIC "-//W3C//DTD SVG 1.1//EN" "http://www.w3.org/Graphics/SVG/1.1/DTD/svg11.dtd">
<svg version="1.1" id="Layer_1" xmlns="http://www.w3.org/2000/svg" xmlns:xlink="http://www.w3.org/1999/xlink" x="0px" y="0px"
	 width="122.115px" height="122.115px" viewBox="32.119 26.246 122.115 122.115"
	 enable-background="new 32.119 26.246 122.115 122.115" xml:space="preserve">
<g id="logo">
	<g>
		<g>
			<g>
				<path fill="#FFFFFF" d="M107.512,60.375H91.658l-0.013,25.84H78.841c-4.283,0-7.89,1.561-10.429,4.512
					c-2.235,2.599-3.465,6.082-3.465,9.812c0,7.119,4.773,14.323,13.895,14.323h15.854l0.013-25.84h12.804
					c4.283,0,7.89-1.562,10.429-4.513c2.235-2.598,3.466-6.083,3.466-9.811C121.407,67.58,116.633,60.375,107.512,60.375z
					 M91.646,111.812H78.841c-7.494,0-10.906-5.86-10.906-11.307c0-5.443,3.413-11.304,10.906-11.304h12.804L91.646,111.812
					L91.646,111.812z M107.512,86.032H94.708V63.424h12.804c7.494,0,10.906,5.859,10.906,11.305
					C118.418,80.173,115.006,86.032,107.512,86.032z"/>
			</g>
			<g>
				<path fill="#FFFFFF" d="M93.177,26.246c-33.667,0-61.058,27.39-61.058,61.057c0,33.668,27.39,61.059,61.058,61.059
					c33.668,0,61.057-27.391,61.057-61.059C154.234,53.636,126.844,26.246,93.177,26.246z M93.177,144.221
					c-31.385,0-56.918-25.533-56.918-56.918c0-31.384,25.533-56.917,56.918-56.917c31.384,0,56.917,25.533,56.917,56.917
					C150.094,118.688,124.561,144.221,93.177,144.221z"/>
			</g>
		</g>
	</g>
</g>
</svg>
