<?xml version="1.0" encoding="utf-8"?>
<!-- Generator: Adobe Illustrator 16.0.3, SVG Export Plug-In . SVG Version: 6.00 Build 0)  -->
<!DOCTYPE svg PUBLIC "-//W3C//DTD SVG 1.1//EN" "http://www.w3.org/Graphics/SVG/1.1/DTD/svg11.dtd">
<svg version="1.1" id="Layer_1" xmlns="http://www.w3.org/2000/svg" xmlns:xlink="http://www.w3.org/1999/xlink" x="0px" y="0px"
	 width="500px" height="222.435px" viewBox="0 0 500 222.435" enable-background="new 0 0 500 222.435" xml:space="preserve">
<polygon fill="#222222" points="257.611,137.249 272.784,129.248 256.118,133.315 265.83,119.174 252.965,130.523 254.998,113.486 
	248.882,129.515 242.761,113.486 244.791,130.523 231.927,119.174 241.64,133.315 224.975,129.248 240.148,137.249 223.5,141.39 
	240.656,141.429 227.841,152.836 243.046,144.895 236.996,160.948 246.775,146.849 248.882,163.877 250.984,146.849 
	260.759,160.948 254.712,144.895 269.918,152.836 257.102,141.429 274.261,141.39 "/>
<rect x="12.82" y="139.85" fill="#222222" width="196.109" height="5.508"/>
<rect x="289.419" y="139.85" fill="#222222" width="199.766" height="5.508"/>
<rect x="12.82" y="130.459" fill="#222222" width="196.109" height="2.198"/>
<rect x="289.419" y="130.459" fill="#222222" width="199.766" height="2.198"/>
<g>
	<polygon fill="#222222" points="489.778,88.448 466.479,88.448 466.479,73.776 485.774,73.776 485.774,59.103 466.479,59.103 
		466.479,44.428 488.543,44.428 488.543,29.757 451.814,29.757 451.814,103.123 489.778,103.123 	"/>
</g>
<polygon fill="#222222" points="373.444,7.553 355.383,7.553 350.358,19.354 363.594,19.354 "/>
<polygon fill="#222222" points="383.254,88.448 359.96,88.448 359.96,73.776 379.253,73.776 379.253,59.103 359.96,59.103 
	359.96,44.428 382.021,44.428 382.021,29.757 345.288,29.757 345.288,103.123 383.254,103.123 "/>
<g>
	<path fill="#222222" d="M257.846,88.859c-3.386,0.309-12.519,0.102-20.932-5.848L235.065,98.4
		c9.956,5.132,19.09,5.644,23.193,5.338c13.75-0.719,22.164-10.058,22.164-22.266c0-11.7-9.852-18.266-21.242-22.471
		c-4.203-1.438-7.8-3.283-8.208-7.388c-0.31-4.107,2.05-7.904,7.286-8.209c2.256-0.105,6.874-0.206,14.98,3.076l1.848-14.16
		c-9.439-3.282-14.47-3.282-18.263-3.078c-12.213,0.615-20.731,10.057-20.731,22.37c0,12.31,10.259,18.159,21.753,22.365
		c4.106,1.436,7.286,3.284,7.596,7.494C265.849,85.474,262.153,88.55,257.846,88.859z"/>
</g>
<g>
	<path fill="#222222" d="M151.219,28.528c-50.486,0-50.486,75.619,0,75.619C201.702,104.147,201.702,28.528,151.219,28.528z
		 M151.219,88.96c-29.348,0-29.348-45.352,0-45.352C180.565,43.609,180.565,88.96,151.219,88.96z"/>
</g>
<g>
	<polygon fill="#222222" points="25.969,62.181 44.744,81.883 63.523,62.181 63.421,103.123 78.301,103.123 78.301,28.628 
		73.679,28.628 44.744,60.844 15.807,28.628 11.087,28.628 11.087,103.123 25.969,103.123 	"/>
</g>
<g>
	<polygon fill="#222222" points="26.565,208.447 17.746,175.518 16.881,175.518 16.881,209.071 17.36,209.071 17.36,175.996 
		26.23,208.973 26.9,208.973 35.817,175.996 35.817,209.071 36.296,209.071 36.296,175.518 35.482,175.518 	"/>
	<path fill="#222222" d="M67.251,175.277c-5.08,0-6.998,3.883-6.998,8.485v17.063c0,4.602,1.917,8.482,6.998,8.482
		c5.13,0,7.044-3.881,7.044-8.482v-17.063C74.295,179.16,72.381,175.277,67.251,175.277z M73.818,200.826
		c0,4.363-1.725,8.005-6.567,8.005c-4.842,0-6.518-3.642-6.518-8.005v-17.063c0-4.314,1.676-8.005,6.518-8.005
		c4.842,0,6.567,3.69,6.567,8.005V200.826z"/>
	<path fill="#222222" d="M105.061,175.518h-6.805v33.553h6.855c5.082,0,7.143-3.69,7.143-8.34v-16.828
		C112.254,179.207,110.193,175.518,105.061,175.518z M111.775,200.731c0,4.407-1.824,7.86-6.664,7.86h-6.376v-32.596h6.326
		c4.844,0,6.714,3.452,6.714,7.907V200.731z"/>
	<path fill="#222222" d="M144.652,175.469l-8.487,33.602h0.481l2.06-8.149h12.701l2.112,8.149h0.479l-8.677-33.602H144.652z
		 M138.85,200.442l6.136-24.349l6.28,24.349H138.85z"/>
	<polygon fill="#222222" points="215.194,208.447 206.375,175.518 205.511,175.518 205.511,209.071 205.992,209.071 
		205.992,175.996 214.858,208.973 215.529,208.973 224.445,175.996 224.445,209.071 224.925,209.071 224.925,175.518 
		224.112,175.518 	"/>
	<polygon fill="#222222" points="248.882,209.071 261.442,209.071 261.442,208.591 249.363,208.591 249.363,192.293 
		259.574,192.293 259.574,191.814 249.363,191.814 249.363,175.996 261.442,175.996 261.442,175.518 248.882,175.518 	"/>
	<polygon fill="#222222" points="302.371,175.518 301.844,175.518 294.174,191.093 286.503,175.518 285.977,175.518 
		293.933,191.623 285.4,209.071 285.977,209.071 294.174,192.151 302.418,209.071 302.944,209.071 294.461,191.623 	"/>
	<rect x="326.903" y="175.518" fill="#222222" width="0.479" height="33.553"/>
	<path fill="#222222" d="M358.247,175.277c-5.081,0-6.905,3.977-6.905,8.485v17.063c0,4.508,1.824,8.482,6.905,8.482
		c5.079,0,6.902-3.975,6.902-8.482v-3.546h-0.476v3.546c0,4.268-1.633,8.005-6.427,8.005c-4.795,0-6.422-3.737-6.422-8.005v-17.063
		c0-4.269,1.627-8.005,6.422-8.005c4.794,0,6.427,3.736,6.427,8.005v2.541h0.476v-2.541
		C365.149,179.253,363.326,175.277,358.247,175.277z"/>
	<path fill="#222222" d="M397.595,175.469l-8.488,33.602h0.479l2.063-8.149h12.703l2.108,8.149h0.482l-8.679-33.602H397.595z
		 M391.792,200.442l6.134-24.349l6.282,24.349H391.792z"/>
	<polygon fill="#222222" points="444.369,208.447 431.715,175.518 430.898,175.518 430.898,209.071 431.38,209.071 431.38,175.996 
		444.131,209.071 444.849,209.071 444.849,175.518 444.369,175.518 	"/>
	<path fill="#222222" d="M477.957,175.469h-0.67l-8.482,33.602h0.48l2.062-8.149h12.701l2.112,8.149h0.479L477.957,175.469z
		 M471.489,200.442l6.136-24.349l6.278,24.349H471.489z"/>
</g>
</svg>
