<?xml version="1.0" encoding="utf-8"?>
<!-- Generator: Adobe Illustrator 16.0.3, SVG Export Plug-In . SVG Version: 6.00 Build 0)  -->
<!DOCTYPE svg PUBLIC "-//W3C//DTD SVG 1.1//EN" "http://www.w3.org/Graphics/SVG/1.1/DTD/svg11.dtd">
<svg version="1.1" id="Layer_1" xmlns="http://www.w3.org/2000/svg" xmlns:xlink="http://www.w3.org/1999/xlink" x="0px" y="0px"
	 width="500px" height="500px" viewBox="0 0 500 500" enable-background="new 0 0 500 500" xml:space="preserve">
<g>
	<path fill="#FFFFFF" d="M474.719,199.856c-7.786-8.919-21.015-13.378-39.308-13.378c-18.515,0-31.443,4.385-39.604,13.606
		c-8.015,8.918-12.021,23.584-12.021,43.388c0,19.88,4.007,34.695,11.944,44.219c8.088,9.522,21.316,14.36,39.303,14.36
		c17.992,0,31.221-4.838,39.459-14.513c8.014-9.6,12.094-24.564,12.094-44.37C486.586,223.291,482.656,208.7,474.719,199.856z
		 M472.98,286.33c-7.787,9.222-20.561,13.832-37.947,13.832c-17.381,0-30.081-4.61-37.791-13.68
		c-7.71-9.148-11.566-23.586-11.566-43.01c0-19.354,3.856-33.56,11.489-42.179c7.787-8.693,20.332-12.924,38.246-12.924
		c17.691,0,30.465,4.231,37.947,12.697c7.559,8.541,11.338,22.679,11.338,42.103C484.696,262.521,480.767,277.033,472.98,286.33z"/>
	<path fill="#FFFFFF" d="M435.261,216.94c-5.44,0-8.992,1.665-10.582,4.989c-1.507,3.174-2.269,9.674-2.269,19.353v7.861
		c0,10.278,0.834,16.704,2.496,19.726c1.662,3.252,5.368,4.914,10.961,4.914c5.519,0,9.071-1.587,10.583-4.764
		c1.361-3.022,2.04-9.144,2.04-19.348v-8.165c0-9.977-0.834-16.328-2.418-19.577C444.41,218.605,440.78,216.94,435.261,216.94z
		 M446.6,249.67c0,9.677-0.678,15.874-1.812,18.593c-1.212,2.42-4.235,3.629-8.921,3.629c-4.914,0-7.937-1.284-9.299-3.93
		c-1.512-2.724-2.263-8.996-2.263-18.821v-7.861c0-11.718,1.129-16.555,2.04-18.596c1.283-2.569,4.307-3.854,8.915-3.854
		c4.764,0,7.787,1.285,9.149,4.002c1.435,2.875,2.189,9.15,2.189,18.672V249.67z"/>
	<path fill="#FFFFFF" d="M337.979,106.808l-26.151,46.637h28.192v26.458l30.464-38.551l-32.126,0.375L337.979,106.808z
		 M341.91,174.461v-22.906h-26.908l21.166-37.641l0.378,29.781l30.009-0.378L341.91,174.461z"/>
	<path fill="#FFFFFF" d="M321.276,300.237h39.304V188.14h-39.304V300.237z M323.167,190.03h35.523v108.318h-35.523V190.03z"/>
	<path fill="#FFFFFF" d="M292.097,242.034c2.346-4.383,3.556-10.203,3.556-17.384c0-12.394-3.4-21.694-10.131-27.586
		c-6.648-5.9-17.004-8.923-30.916-8.923h-47.997v112.097h38.325V262.37h1.207l10.733,37.187l0.228,0.681h41.271l-16.702-47.243
		C286.276,249.899,289.756,246.191,292.097,242.034z M295.652,298.348h-37.189l-10.733-37.188l-0.228-0.681h-4.458v37.869h-34.544
		V190.03h46.106c13.379,0,23.361,2.874,29.709,8.394c6.348,5.666,9.449,14.206,9.449,26.226c0,6.878-1.134,12.397-3.329,16.477
		c-2.269,4.084-5.82,7.637-10.428,10.733l-0.606,0.378L295.652,298.348z"/>
	<path fill="#FFFFFF" d="M247.879,217.318h-5.591v23.356h5.364c3.101,0,5.292-0.983,6.576-2.872c1.211-1.813,1.817-4.836,1.817-8.92
		c0-4.308-0.606-7.181-1.968-8.843C252.793,218.225,250.676,217.318,247.879,217.318z M252.716,236.742
		c-0.979,1.361-2.568,2.042-5.064,2.042h-3.474v-19.577h3.702c2.19,0,3.78,0.603,4.686,1.965c0.756,0.907,1.589,3.024,1.589,7.709
		C254.154,233.493,253.398,235.686,252.716,236.742z"/>
	<path fill="#FFFFFF" d="M218.249,324.577c-3.552,1.361-7.031,2.343-10.428,3.099c-7.486,1.664-14.368,2.04-20.41,1.286
		c-6.353-0.831-12.322-2.948-17.691-6.423c-4.836-3.101-9.372-7.337-13.83-12.928c-4.235-5.367-7.181-10.733-8.771-15.95
		c-0.906-2.57-1.435-5.216-1.74-8.312c-0.223-2.647-0.223-5.444,0.078-8.315c0.756-5.519,2.573-11.188,5.519-16.78
		c1.362-2.724,3.024-5.368,4.836-7.938c0.455-0.681,0.983-1.283,1.439-1.967c0.451-0.604,0.906-1.284,1.434-1.888l2.874-3.176
		c0.906-1.056,1.662-1.89,2.496-2.795l0.528-0.681c0.528-0.603,1.056-1.284,1.512-1.889c1.357-1.738,2.646-3.478,3.853-5.292
		c2.495-3.626,4.686-7.482,6.575-11.414c4.235-8.689,6.653-17.459,7.336-26.077c0.756-9.448-0.761-18.973-4.385-27.666
		c-3.329-7.859-8.393-15.269-15.119-21.996c-3.024-2.947-6.275-5.746-9.977-8.389c-3.857-2.649-7.787-4.839-11.566-6.426
		c-4.23-1.738-8.465-2.949-12.773-3.555c-4.308-0.678-8.693-0.906-13.001-0.526c-8.015,0.681-16.024,3.023-23.734,7.031
		c-3.479,1.812-6.803,3.93-10.055,6.347c-3.552,2.721-6.348,5.216-8.693,7.712l-3.402,3.702l4.458-2.193
		c3.179-1.509,6.581-2.946,10.282-4.308c4.158-1.434,7.409-2.343,10.505-3.024c7.487-1.586,14.363-2.04,20.41-1.208
		c6.425,0.832,12.323,2.949,17.687,6.35c5.063,3.174,9.677,7.48,13.757,12.851c4.157,5.289,7.108,10.654,8.771,16.025
		c1.662,5.514,2.113,11.111,1.362,16.703c-0.456,3.629-1.589,7.334-3.101,11.11c-0.756-3.851-1.812-7.708-3.324-11.41
		c-3.329-7.938-8.621-15.497-15.119-21.997c-3.174-3.176-6.502-5.972-9.977-8.39c-3.707-2.569-7.486-4.688-11.566-6.503
		c-4.158-1.662-8.465-2.871-12.773-3.552c-4.385-0.679-8.771-0.831-13-0.453c-8.015,0.605-16.18,3.023-23.662,7.027
		c-3.324,1.741-6.726,3.858-10.127,6.276c-3.629,2.796-6.425,5.292-8.693,7.863l-3.251,3.551l4.385-2.118
		c3.702-1.815,7.104-3.249,10.282-4.308c3.174-1.208,6.726-2.192,10.428-3.023c7.258-1.662,14.135-2.042,20.487-1.209
		c6.271,0.756,12.245,2.874,17.687,6.35c4.836,3.024,9.521,7.333,13.757,12.849c4.158,5.216,7.026,10.658,8.693,16.024
		c1.662,5.444,2.118,11.036,1.357,16.706c-0.45,3.629-1.584,7.409-3.096,11.188c-0.834-4.081-1.812-8.011-3.402-11.566
		c-3.251-7.859-8.388-15.27-15.041-21.997c-3.024-2.946-6.275-5.742-9.978-8.39c-4.007-2.796-7.864-4.835-11.566-6.423
		c-4.385-1.814-8.693-3.022-12.773-3.549c-4.308-0.758-8.771-0.911-13-0.533c-7.938,0.681-15.952,3.025-23.661,7.028
		c-3.475,1.74-6.881,3.933-10.055,6.35c-3.702,2.799-6.498,5.292-8.766,7.862l-3.401,3.777l4.536-2.343
		c3.174-1.662,6.576-3.021,10.277-4.308c3.102-1.134,6.425-2.115,10.51-3.099c7.254-1.512,14.208-1.965,20.405-1.209
		c6.353,0.832,12.25,2.946,17.691,6.348c4.986,3.101,9.6,7.484,13.757,12.851c4.08,5.217,7.026,10.583,8.693,16.027
		c1.734,5.289,2.19,10.884,1.434,16.703c-0.833,5.595-2.723,11.261-5.669,16.856c-1.589,3.025-3.096,5.67-4.836,8.087
		c-0.911,1.212-1.817,2.496-2.874,3.78c-0.378,0.605-0.833,1.061-1.211,1.512l-0.15,0.15c-0.301,0.305-0.606,0.684-0.834,0.983
		c-0.223,0.153-0.373,0.379-0.45,0.455c-0.606,0.528-0.984,1.057-1.362,1.51l-1.134,1.286c-0.756,0.833-1.512,1.662-2.19,2.496
		c-1.284,1.737-2.646,3.475-3.857,5.291c-2.646,3.93-4.836,7.707-6.653,11.489c-4.231,8.766-6.648,17.611-7.254,26.229
		c-0.606,9.597,1.056,19.121,4.763,27.587c1.662,3.932,3.853,7.864,6.726,11.869c2.496,3.627,5.369,6.953,8.466,9.979
		c6.503,6.426,13.907,11.562,21.466,14.735c4.085,1.817,8.393,3.024,12.778,3.707c2.946,0.45,5.892,0.679,8.843,0.679
		c1.434,0,2.869,0,4.23-0.15c8.087-0.679,16.252-3.174,23.661-7.104c3.174-1.59,6.348-3.702,10.055-6.426
		c3.475-2.646,6.348-5.291,8.616-7.938l3.247-3.629l-4.38,2.19c-3.629,1.89-6.954,3.329-10.205,4.386
		c-3.324,1.288-6.803,2.268-10.433,3.174c-4.986,1.061-9.672,1.589-13.984,1.589c-2.19,0-4.38-0.15-6.348-0.378
		c-6.348-0.829-12.318-2.946-17.687-6.425c-5.064-3.175-9.599-7.409-13.834-12.924c-4.158-5.294-7.181-10.66-8.843-15.952
		c-0.906-2.796-1.512-5.592-1.739-8.315c-0.228-2.645-0.228-5.441,0.155-8.314c0.451-3.627,1.662-7.406,3.174-11.262
		c0.756,4.005,1.89,7.938,3.474,11.717c1.817,4.157,4.085,8.162,6.804,11.867c2.495,3.552,5.219,6.804,8.465,10.055
		c6.73,6.65,13.984,11.639,21.466,14.813c4.007,1.662,8.465,2.873,12.778,3.552c3.023,0.53,6.048,0.756,8.843,0.756
		c1.435,0,2.874-0.075,4.23-0.15c8.015-0.681,15.953-3.097,23.662-7.182c3.324-1.739,6.653-3.779,10.05-6.348
		c2.724-2.192,5.975-4.841,8.693-7.939l3.023-3.477l-4.158,2.045c-3.552,1.659-7.026,3.172-10.277,4.38
		c-3.023,1.135-6.348,2.118-10.433,3.102c-7.181,1.585-14.135,2.041-20.405,1.284c-6.202-0.833-12.25-3.023-17.614-6.351
		c-5.063-3.324-9.599-7.557-13.834-12.998c-4.158-5.369-7.182-10.735-8.844-16.027c-0.906-2.796-1.511-5.594-1.734-8.239
		c-0.228-2.719-0.228-5.442,0.15-8.391c0.528-3.777,1.662-7.56,3.174-11.262c0.829,4.083,1.89,8.088,3.475,11.792
		c1.739,3.855,3.857,7.785,6.73,11.867c2.646,3.63,5.442,6.879,8.543,9.977c6.348,6.427,13.752,11.567,21.466,14.741
		c4.002,1.812,8.311,3.023,12.773,3.702c2.718,0.455,5.592,0.681,8.388,0.681c1.589,0,3.101-0.075,4.613-0.226
		c8.087-0.605,16.097-3.023,23.734-7.031c3.552-1.965,6.954-4.082,10.055-6.425c3.324-2.493,6.12-5.139,8.616-7.938l3.402-3.777
		l-4.536,2.344C225.052,321.934,221.577,323.443,218.249,324.577z M132.684,219.661c0.906-5.972,0.377-11.867-1.362-17.611
		c-1.739-5.595-4.763-11.187-8.994-16.63c-4.385-5.592-9.221-10.13-14.212-13.304c-5.742-3.554-11.944-5.82-18.52-6.5
		c-2.19-0.301-4.535-0.453-6.876-0.453c-4.535,0-9.299,0.528-14.285,1.663c-3.78,0.832-7.336,1.813-10.583,3.024
		c-1.817,0.604-3.707,1.361-5.669,2.191c1.357-1.208,2.946-2.493,4.686-3.854c3.251-2.343,6.576-4.46,9.905-6.123
		c7.254-3.854,15.113-6.198,22.9-6.878c4.08-0.303,8.315-0.226,12.55,0.453c4.153,0.681,8.311,1.89,12.317,3.477
		c4.007,1.739,7.71,3.779,11.261,6.275c3.33,2.341,6.581,5.138,9.677,8.238c6.425,6.276,11.489,13.682,14.74,21.391
		c1.812,4.46,3.097,9.147,3.78,13.834c-0.228,0.528-0.456,0.981-0.683,1.512c-0.223,0.374-0.378,0.756-0.528,1.058
		c-1.357,2.647-2.946,5.292-4.836,8.011l-1.056,1.437c-0.606,0.831-1.212,1.587-1.74,2.343c-0.306,0.303-0.606,0.606-0.833,0.984
		c-0.228,0.229-0.451,0.529-0.756,0.831c-0.141,0.196-0.31,0.385-0.475,0.574l0.256-1.692c0.315-2.194,0.61-4.396,0.872-6.606
		c0.233-2.212,0.422-4.432,0.567-6.658c0.291-4.451,0.377-8.928,0.125-13.381c-0.252-4.456-0.857-8.877-1.744-13.219
		c0.993,8.83,0.499,17.667-0.645,26.38c-0.281,2.181-0.611,4.359-0.945,6.537l-0.95,6.554c-0.271,1.869-0.533,3.742-0.785,5.616
		c-0.523,0.671-1.119,1.345-1.57,2.018l-0.528,0.528c-1.362,1.74-2.646,3.479-3.93,5.292c-2.04,2.95-3.552,5.669-4.991,8.393
		c0.228-3.704,0.15-7.56-0.377-11.337C130.644,229.11,132.156,224.271,132.684,219.661z M92.925,311.879
		c-2.268,4.913-3.707,9.749-4.235,14.362c-0.451,3.024-0.451,6.048-0.228,8.766c0.305,2.874,0.911,5.822,1.817,8.771
		c1.735,5.442,4.835,11.034,9.144,16.553c4.385,5.67,9.071,10.053,14.29,13.38c5.665,3.552,11.862,5.819,18.443,6.575
		c2.113,0.305,4.308,0.455,6.648,0.455c4.463,0,9.299-0.528,14.44-1.662c3.625-0.834,7.254-1.967,10.583-3.174
		c1.812-0.605,3.702-1.361,5.669-2.194c-1.439,1.283-3.024,2.572-4.763,3.856c-3.479,2.719-6.654,4.686-9.75,6.275
		c-7.181,3.853-15.119,6.197-22.905,6.953c-4.235,0.301-8.465,0.072-12.623-0.532c-4.235-0.679-8.393-1.891-12.323-3.625
		c-7.332-3.102-14.585-8.088-20.861-14.362c-3.023-2.949-5.819-6.198-8.315-9.677c-2.796-3.931-4.914-7.71-6.498-11.564
		c-3.557-8.09-5.141-17.537-4.613-26.683c0.606-8.466,2.946-17.081,7.031-25.624c1.812-3.629,3.93-7.333,6.498-11.188
		c1.211-1.739,2.496-3.477,3.857-5.139c0.679-0.834,1.285-1.665,2.04-2.496l1.212-1.286c0.3-0.45,0.678-0.829,1.207-1.284
		c0.15-0.226,0.378-0.452,0.605-0.679c0.228-0.305,0.456-0.53,0.829-0.908l0.155-0.149c0.378-0.531,0.906-1.137,1.207-1.665
		c1.134-1.209,2.044-2.568,2.951-3.856c1.812-2.492,3.402-5.137,4.986-8.238c3.023-5.819,4.991-11.64,5.819-17.459
		c0.833-6.122,0.306-12.02-1.434-17.612c-1.74-5.594-4.763-11.188-8.994-16.63c-4.308-5.517-9.149-9.977-14.212-13.304
		c-5.742-3.477-11.944-5.669-18.442-6.499c-2.195-0.304-4.385-0.454-6.653-0.454c-4.608,0-9.449,0.603-14.513,1.662
		c-4.158,0.983-7.559,1.967-10.655,3.099c-1.968,0.681-3.857,1.361-5.597,2.118c1.362-1.209,2.874-2.418,4.686-3.779
		c3.101-2.344,6.425-4.461,9.827-6.199c7.486-3.854,15.196-6.124,22.905-6.803c4.158-0.303,8.388-0.15,12.545,0.454
		c3.93,0.605,8.087,1.738,12.323,3.551c3.629,1.437,7.332,3.477,11.261,6.125c3.629,2.644,6.804,5.292,9.677,8.238
		c6.498,6.501,11.489,13.682,14.663,21.391c1.89,4.308,3.173,8.996,3.857,13.984l-1.211,2.42c-1.512,2.946-3.097,5.592-4.836,8.087
		c-0.834,1.134-1.817,2.568-2.874,3.777c-0.456,0.606-0.984,1.209-1.512,1.814c-0.15,0.228-0.378,0.453-0.606,0.682
		c-0.228,0.301-0.528,0.53-0.601,0.681c-0.349,0.348-0.625,0.659-0.886,0.963l0.959-4.203c0.485-2.363,0.926-4.757,1.284-7.17
		c0.722-4.826,1.003-9.772,0.558-14.636c-0.397-4.869-1.517-9.611-3.024-14.171c0.969,4.708,1.381,9.498,1.231,14.221
		c-0.17,4.728-0.945,9.373-2.04,13.957c-0.548,2.296-1.183,4.579-1.822,6.875l-1.847,6.952c-0.47,1.818-0.896,3.657-1.298,5.507
		c-0.542,0.758-1.071,1.517-1.584,2.284c-2.491,3.477-4.758,7.334-6.648,11.415c-4.235,8.842-6.653,17.613-7.181,26.229
		C92.242,303.563,92.393,307.797,92.925,311.879z M116.204,301.446c-0.451,3.101-0.451,6.05-0.223,8.846
		c0.3,2.796,0.829,5.744,1.812,8.693c1.74,5.441,4.836,11.036,9.143,16.627c4.386,5.593,9.072,9.978,14.285,13.38
		c5.675,3.479,12.022,5.819,18.37,6.577c6.503,0.831,13.757,0.376,21.166-1.286c4.157-0.981,7.559-1.965,10.583-3.099
		c1.89-0.681,3.779-1.512,5.742-2.343c-1.662,1.512-3.247,2.796-4.836,4.008c-3.251,2.492-6.425,4.534-9.75,6.196
		c-7.409,3.931-15.118,6.273-22.905,6.954c-3.93,0.301-8.16,0.15-12.623-0.528c-4.157-0.679-8.465-1.89-12.317-3.555
		c-7.259-3.023-14.29-7.861-20.866-14.359c-3.174-3.177-5.897-6.353-8.315-9.752c-2.568-3.627-4.763-7.484-6.576-11.564
		c-1.89-4.613-3.251-9.299-4.007-14.135c0.305-0.681,0.683-1.435,1.062-2.117l0.073-0.228c1.439-2.722,3.023-5.442,4.84-8.013
		c0.432-0.611,0.882-1.204,1.337-1.796c0.296,1.958,0.683,3.88,1.11,5.783c0.848,3.729,1.948,7.364,3.082,10.964
		c1.129,3.605,2.413,7.147,3.576,10.721c-0.557-3.722-1.129-7.445-1.633-11.157c-0.514-3.712-0.896-7.433-1.192-11.113
		c-0.276-3.673-0.431-7.36-0.121-10.827c0-0.015,0.005-0.03,0.005-0.044c0.668-0.707,1.221-1.369,1.769-1.979l0.155-0.302
		c0.828-0.831,1.512-1.664,2.19-2.569c1.362-1.663,2.646-3.478,3.857-5.292c1.812-2.721,3.475-5.52,4.986-8.391
		c-0.15,3.704-0.073,7.484,0.456,11.264C118.244,291.774,116.81,296.61,116.204,301.446z M219.838,328.054
		c-3.024,2.268-6.353,4.388-9.827,6.274c-7.409,3.931-15.118,6.198-22.978,6.877c-4.085,0.305-8.465,0.152-12.55-0.451
		c-4.308-0.681-8.465-1.89-12.322-3.63c-7.482-3.099-14.663-8.087-20.861-14.362c-3.097-3.023-5.819-6.197-8.388-9.674
		c-2.723-4.005-4.841-7.784-6.503-11.564c-1.89-4.386-3.251-9.146-4.007-14.212c0.305-0.604,0.533-1.209,0.833-1.812l0.3-0.531
		c1.362-2.644,2.951-5.367,4.914-8.087c0.625-0.907,1.313-1.837,2.054-2.731c0.068,3.229,0.271,6.448,0.596,9.641
		c0.508,5.003,1.332,9.945,2.364,14.827c1.008,4.888,2.297,9.699,3.668,14.468c-0.775-4.902-1.274-9.837-1.657-14.751
		c-0.349-4.923-0.514-9.838-0.484-14.73c0.043-4.89,0.314-9.754,0.906-14.538c0.053-0.436,0.112-0.863,0.17-1.295l0.397-0.49
		c0.528-0.604,1.057-1.209,1.584-1.813l0.606-0.757c1.289-1.736,2.646-3.477,3.857-5.291c2.796-4.307,4.836-7.938,6.498-11.489
		c4.235-8.691,6.653-17.461,7.259-26.077c0.378-4.083,0.301-8.391-0.305-12.699c2.195-4.84,3.707-9.676,4.235-14.287
		c0.906-5.895,0.378-11.791-1.362-17.611c-1.739-5.519-4.764-11.111-9.071-16.629c-4.23-5.52-8.994-9.978-14.208-13.302
		c-5.669-3.479-11.867-5.672-18.448-6.502c-6.27-0.907-13.379-0.454-21.161,1.21c-3.101,0.678-6.425,1.584-10.661,3.022
		c-1.962,0.755-3.779,1.436-5.52,2.192c1.362-1.209,2.874-2.495,4.613-3.779c3.174-2.344,6.426-4.459,9.827-6.199
		c7.481-3.855,15.191-6.125,22.978-6.878c4.23-0.228,8.388-0.076,12.545,0.529c4.158,0.604,8.315,1.813,12.322,3.553
		c3.707,1.512,7.482,3.552,11.262,6.12c3.629,2.648,6.803,5.292,9.676,8.24c6.576,6.5,11.489,13.682,14.663,21.392
		c3.552,8.395,4.991,17.616,4.308,26.757c-0.679,8.393-3.023,16.933-7.104,25.474c-1.89,3.78-4.007,7.562-6.425,11.111
		c-1.207,1.741-2.491,3.479-3.852,5.216c-0.456,0.605-0.984,1.208-1.439,1.816l-0.601,0.681c-0.683,0.905-1.439,1.736-2.345,2.641
		l-3.024,3.328c-0.451,0.681-0.984,1.288-1.434,1.965c-0.456,0.605-0.911,1.288-1.439,1.969c-1.89,2.646-3.552,5.44-4.986,8.164
		c-3.023,5.818-4.913,11.714-5.669,17.459c-0.377,3.022-0.377,5.895-0.155,8.693c0.305,3.323,0.911,6.048,1.817,8.765
		c1.662,5.369,4.764,10.961,9.071,16.556c4.608,5.744,9.299,10.13,14.285,13.381c5.669,3.553,11.867,5.742,18.443,6.573
		c6.275,0.909,13.457,0.456,21.166-1.284c3.402-0.756,6.954-1.814,10.583-3.099c1.812-0.679,3.702-1.361,5.592-2.19
		C223.012,325.485,221.5,326.77,219.838,328.054z"/>
</g>
</svg>
