<?xml version="1.0" encoding="utf-8"?>
<!-- Generator: Adobe Illustrator 16.0.3, SVG Export Plug-In . SVG Version: 6.00 Build 0)  -->
<!DOCTYPE svg PUBLIC "-//W3C//DTD SVG 1.1//EN" "http://www.w3.org/Graphics/SVG/1.1/DTD/svg11.dtd">
<svg version="1.1" id="Layer_1" xmlns="http://www.w3.org/2000/svg" xmlns:xlink="http://www.w3.org/1999/xlink" x="0px" y="0px"
	 width="500px" height="500px" viewBox="0 0 500 500" enable-background="new 0 0 500 500" xml:space="preserve">
<g>
	<g>
		<g>
			<path fill="#FFFFFF" d="M220.889,416.997h10.935v3.391h-14.37v-23.514h14.333v3.395h-10.898v6.632h10.668v3.438h-10.668V416.997z
				"/>
		</g>
		<g>
			<path fill="#FFFFFF" d="M243.112,420.388v-23.58l2.625,0.026l11.473,16.592v-16.592h3.368v23.554h-2.696l-11.37-16.444v16.444
				H243.112z"/>
		</g>
		<g>
			<path fill="#FFFFFF" d="M291.382,405.29c-0.94-3.805-4.574-5.185-7.569-5.185c-4.607,0-8.176,3.598-8.176,8.549
				c0,4.981,3.568,8.646,8.176,8.646c2.895,0,5.992-1.344,7.399-4.778h-8.709v-3.401h12.687c-0.166,1.987-0.333,3.295-0.646,4.081
				v-0.046c-1.607,4.515-6.455,7.415-10.73,7.415c-6.595,0-11.58-4.991-11.58-11.917c0-6.972,5.085-11.943,11.58-11.943
				c4.509,0,9.964,2.32,11.211,8.579H291.382z"/>
		</g>
		<g>
			<path fill="#FFFFFF" d="M317.55,400.238h-4.374v16.759h4.374v3.391h-12.15v-3.391h4.382v-16.759h-4.382v-3.364h12.15V400.238z"/>
		</g>
		<g>
			<path fill="#FFFFFF" d="M329,420.388v-23.58l2.628,0.026l11.474,16.592v-16.592h3.374v23.554h-2.697l-11.37-16.444v16.444H329z"
				/>
		</g>
		<g>
			<path fill="#FFFFFF" d="M361.863,416.997h10.94v3.391H358.43v-23.514h14.344v3.395h-10.91v6.632h10.677v3.438h-10.677V416.997z"
				/>
		</g>
		<g>
			<path fill="#FFFFFF" d="M387.392,416.997h10.937v3.391h-14.371v-23.514h14.338v3.395h-10.903v6.632h10.667v3.438h-10.667V416.997
				z"/>
		</g>
		<g>
			<path fill="#FFFFFF" d="M414.26,408.454h3.968c2.861,0,4.271-2.054,4.271-4.107c0-2.021-1.41-4.078-4.271-4.078h-5.215v20.119
				h-3.367v-23.554h8.582c5.115,0,7.673,3.778,7.673,7.513c0,3.327-2.051,6.495-6.092,7.198l7.436,8.843h-4.405l-8.579-10.323
				V408.454z"/>
		</g>
	</g>
	<g>
		<path fill="#FFFFFF" d="M76.817,151.969v20.458H66.632v-61.464h30.732c5.609,0,10.42,2.008,14.436,6.022
			c4.015,4.016,6.022,8.856,6.022,14.524c0,5.61-2.008,10.451-6.022,14.525c-4.016,3.956-8.827,5.934-14.436,5.934H76.817z
			 M76.817,121.237v20.458h20.547c2.775,0,5.166-1.003,7.174-3.011c2.006-2.006,3.011-4.398,3.011-7.174
			c0-2.834-1.005-5.254-3.011-7.262c-2.008-2.007-4.399-3.011-7.174-3.011H76.817z"/>
		<path fill="#FFFFFF" d="M186.813,110.964v10.273h-30.732v15.41h30.732v10.185h-30.732v15.322h30.732v10.273h-40.917v-61.464
			H186.813z"/>
		<path fill="#FFFFFF" d="M254.298,172.428l-11.868-20.458h-17.358v20.458h-10.185v-61.464h30.732
			c5.608,0,10.421,2.008,14.437,6.022c4.014,4.016,6.021,8.827,6.021,14.436c0,4.251-1.211,8.119-3.631,11.602
			c-2.361,3.425-5.373,5.875-9.033,7.351l12.664,22.053H254.298z M245.618,121.237h-20.547v20.37l20.547,0.088
			c2.775,0,5.166-1.003,7.174-3.011c2.007-2.006,3.011-4.428,3.011-7.262c0-2.775-1.004-5.166-3.011-7.174
			C250.784,122.242,248.393,121.237,245.618,121.237z"/>
		<path fill="#FFFFFF" d="M335.067,110.964v10.273h-30.732v15.41h30.732v10.185h-30.732v15.322h30.732v10.273H294.15v-61.464
			H335.067z"/>
		<path fill="#FFFFFF" d="M403.261,121.237h-40.12v-10.273h61.109l-40.031,51.19h40.475v10.273h-61.553L403.261,121.237z"/>
	</g>
	<g>
		<path fill="#FFFFFF" d="M171.655,274.379l-10.415-17.953h-15.233v17.953h-8.938V220.44h26.969c4.922,0,9.145,1.762,12.668,5.285
			c3.523,3.524,5.285,7.747,5.285,12.668c0,3.73-1.062,7.125-3.187,10.182c-2.073,3.005-4.716,5.156-7.928,6.451l11.114,19.353
			H171.655z M164.039,229.456h-18.031v17.876l18.031,0.078c2.435,0,4.533-0.88,6.295-2.643c1.761-1.761,2.643-3.886,2.643-6.373
			c0-2.435-0.882-4.533-2.643-6.295C168.572,230.338,166.474,229.456,164.039,229.456z"/>
		<path fill="#FFFFFF" d="M206.628,220.44h8.938v53.938h-8.938V220.44z"/>
		<path fill="#FFFFFF" d="M276.109,220.44v9.016H249.14v13.523h26.969v8.938H249.14v13.445h26.969v9.016h-35.907V220.44H276.109z"/>
		<path fill="#FFFFFF" d="M327.715,220.44c3.73,0,7.229,0.7,10.492,2.099c3.265,1.399,6.14,3.342,8.627,5.829l-6.45,6.373
			c-3.473-3.523-7.694-5.285-12.669-5.285c-4.923,0-9.171,1.762-12.746,5.285c-3.472,3.524-5.207,7.747-5.207,12.668
			c0,4.923,1.735,9.171,5.207,12.747c3.575,3.472,7.823,5.207,12.746,5.207c2.693,0,5.194-0.53,7.5-1.594
			c2.305-1.061,4.313-2.551,6.023-4.469v-7.383h-13.523v-8.938h22.539v19.275c-1.243,1.813-2.682,3.472-4.313,4.974
			c-1.632,1.504-3.407,2.786-5.324,3.848c-1.917,1.062-3.964,1.878-6.14,2.448s-4.43,0.854-6.762,0.854
			c-7.461,0-13.809-2.643-19.042-7.928c-5.284-5.232-7.927-11.58-7.927-19.042c0-7.409,2.643-13.756,7.927-19.042
			C313.906,223.083,320.254,220.44,327.715,220.44z"/>
		<path fill="#FFFFFF" d="M401.86,220.44c7.461,0,13.808,2.643,19.042,7.928c5.336,5.285,8.005,11.633,8.005,19.042
			c0,7.513-2.669,13.861-8.005,19.042c-5.234,5.285-11.581,7.928-19.042,7.928s-13.809-2.643-19.042-7.928
			c-5.284-5.232-7.927-11.58-7.927-19.042c0-7.409,2.643-13.756,7.927-19.042C387.999,223.083,394.347,220.44,401.86,220.44z
			 M401.86,229.456c-4.923,0-9.171,1.762-12.746,5.285c-3.472,3.524-5.207,7.747-5.207,12.668c0,4.923,1.735,9.171,5.207,12.747
			c3.575,3.472,7.823,5.207,12.746,5.207c4.922,0,9.145-1.735,12.669-5.207c3.522-3.575,5.284-7.823,5.284-12.747
			c0-4.922-1.762-9.144-5.284-12.668C411.005,231.218,406.782,229.456,401.86,229.456z"/>
	</g>
	<g>
		<path fill="#FFFFFF" d="M74.485,253.951v17.953h-8.938v-53.938h26.969c4.922,0,9.145,1.762,12.668,5.285
			c3.523,3.524,5.285,7.772,5.285,12.746c0,4.923-1.762,9.171-5.285,12.747c-3.524,3.471-7.747,5.208-12.668,5.208H74.485z
			 M74.485,226.981v17.954h18.031c2.435,0,4.533-0.88,6.295-2.643c1.761-1.761,2.643-3.859,2.643-6.295
			c0-2.487-0.882-4.611-2.643-6.373c-1.762-1.761-3.86-2.643-6.295-2.643H74.485z"/>
	</g>
	<g>
		<g>
			<path fill="#FFFFFF" d="M228.658,352.811c10.228,0,15.356,7.809,15.356,15.618s-5.128,15.575-15.356,15.575h-11.193v-31.193
				H228.658z M228.658,379.502c7.235,0,10.893-5.538,10.893-11.073c0-5.542-3.658-11.113-10.893-11.113h-6.684v22.187H228.658z"/>
		</g>
		<g>
			<path fill="#FFFFFF" d="M263.773,379.502h14.494v4.502h-19.053v-31.193h19.013v4.505h-14.454v8.793h14.138v4.555h-14.138V379.502
				z"/>
		</g>
		<g>
			<path fill="#FFFFFF" d="M310.248,360.847c-0.624-2.814-3.661-4.021-6.376-3.975c-2.106,0.047-4.421,0.76-5.668,2.364
				c-0.62,0.807-0.854,1.83-0.761,2.9c0.221,3.218,3.748,3.611,7.093,3.932c4.284,0.533,9.586,1.646,10.797,6.651
				c0.14,0.657,0.229,1.421,0.229,2.055c0,6.008-5.981,9.496-11.604,9.496c-4.818,0-10.656-2.857-11.24-8.433l-0.05-0.851
				l4.555-0.09l0.04,0.667v-0.17c0.32,2.9,3.841,4.411,6.735,4.411c3.348,0,7.009-1.871,7.009-5.085c0-0.316-0.043-0.67-0.133-1.067
				c-0.537-2.363-3.748-2.773-6.876-3.084c-4.858-0.49-10.573-1.567-11.063-8.072v0.043c-0.18-2.101,0.367-4.194,1.701-5.925
				c2.09-2.725,5.848-4.161,9.456-4.161c4.818,0,9.823,2.504,10.616,8.212L310.248,360.847z"/>
		</g>
		<g>
			<path fill="#FFFFFF" d="M345.038,357.275h-5.795v22.227h5.795v4.502h-16.111v-4.502h5.809v-22.227h-5.809v-4.465h16.111V357.275z
				"/>
		</g>
		<g>
			<path fill="#FFFFFF" d="M383.624,363.968c-1.247-5.039-6.065-6.876-10.037-6.876c-6.108,0-10.843,4.775-10.843,11.337
				c0,6.603,4.734,11.467,10.843,11.467c3.835,0,7.942-1.79,9.81-6.339h-11.55v-4.501h16.825c-0.227,2.631-0.446,4.364-0.854,5.401
				v-0.053c-2.141,5.984-8.566,9.819-14.231,9.819c-8.742,0-15.348-6.599-15.348-15.795c0-9.232,6.735-15.838,15.348-15.838
				c5.982,0,13.204,3.07,14.858,11.377H383.624z"/>
		</g>
		<g>
			<path fill="#FFFFFF" d="M404.094,384.004v-31.28l3.484,0.044l15.218,22.007v-22.007h4.448v31.236h-3.564l-15.082-21.82v21.82
				H404.094z"/>
		</g>
	</g>
	<g>
		<g>
			<path fill="#FFFFFF" d="M63.857,399.395v-47.378h9.89v47.479c0,7.452,8.042,11.134,15.214,11.134
				c7.069,0,15.113-3.775,15.113-11.234v-47.378h9.885v47.479c0,13.751-13.374,20.93-24.998,20.93
				C77.036,420.425,63.857,413.246,63.857,399.395z"/>
		</g>
		<g>
			<path fill="#FFFFFF" d="M139.43,352.017l18.409,25.392l18.504-25.392h11.922l-24.514,34.008
				c7.269,9.977,18.024,24.704,24.514,33.714h-11.922l-18.504-25.382l-18.409,25.382h-12.017l24.514-33.714
				c-7.262-9.983-18.312-25.385-24.514-34.008H139.43z"/>
		</g>
	</g>
	<g>
		<line fill="#FFFFFF" x1="63.857" y1="313.398" x2="209.195" y2="313.398"/>
		<rect x="63.857" y="312.898" fill="#FFFFFF" width="145.338" height="1"/>
	</g>
	<g>
		<polygon fill="#FFFFFF" points="249.878,340.008 211.818,297.239 210.041,313.453 209.046,313.344 211.069,294.894 
			249.761,338.371 282.064,289.516 284.006,312.898 428.885,312.898 428.885,313.898 283.086,313.898 281.307,292.475 		"/>
	</g>
</g>
</svg>
